<svg xmlns="http://www.w3.org/2000/svg" xmlns:xlink="http://www.w3.org/1999/xlink" version="1.0" id="Layer_1" x="0px" y="0px" width="32px" height="32px" viewBox="0 0 32 32" enable-background="new 0 0 32 32" xml:space="preserve" class="clothes-class">
<path d="M22,5.176V4c0-1.105-0.895-2-2-2h-8c-1.105,0-2,0.895-2,2v1.176C4.137,7.551,0,13.289,0,20v8c0,1.105,0.895,2,2,2h2  c1.105,0,2-0.895,2-2v-8c0-2.234,0.758-4.277,2-5.945V30c0,1.105,0.895,2,2,2h12c1.105,0,2-0.895,2-2V14.055  c1.238,1.668,2,3.711,2,5.945v8c0,1.105,0.895,2,2,2h2c1.105,0,2-0.895,2-2v-8C32,13.289,27.859,7.551,22,5.176z M16,28  c-1.105,0-2-0.895-2-2s0.895-2,2-2s2,0.895,2,2S17.105,28,16,28z M16,22c-1.105,0-2-0.895-2-2s0.895-2,2-2s2,0.895,2,2  S17.105,22,16,22z M16,16c-1.105,0-2-0.895-2-2s0.895-2,2-2s2,0.895,2,2S17.105,16,16,16z M16,8l-4-4h8L16,8z"/>
<g>
</g>
<g>
</g>
<g>
</g>
<g>
</g>
<g>
</g>
<g>
</g>
<g>
</g>
<g>
</g>
<g>
</g>
<g>
</g>
<g>
</g>
<g>
</g>
<g>
</g>
<g>
</g>
<g>
</g>
</svg>
